@startuml
'https://plantuml.com/class-diagram

class Member {
e-mail: String
}
class BoardMember {
}
class Event {
date: Date
description: String
assign(I: Location): void
}
class Conference {
max_attendees: Integer
}
class BoardMeeting {
}
class Location {
description: String
address: String
}
class Person {
name: String
}
class AAUOC {
newLocation(I: Location): void
newEvent(e: Event): void
newPerson(p: Person): void
informEvent(e: Event): void
register(m: Member,e: Event): void
}

AAUOC o--- "0..*" Location
AAUOC o--- "0..*" Event
AAUOC o--- "0..*" Person

Person <|-- Member
BoardMember -|> Member

BoardMeeting --|> Event

Event "0..*" -- "0..*" Member : attends To

BoardMember "0..*" -- "0..*" BoardMeeting : attends To

Location "1..1" ---> "0..*" Event : isLocated in

Conference --|> Event
Conference "0..*" -- "0..*" Person : attends To

@enduml